<svg id="Lager_1" data-name="Lager 1" xmlns="http://www.w3.org/2000/svg" viewBox="0 0 375.05 160.79"><defs><style>.cls-1{fill:#fff;}.cls-2{font-size:32px;fill:#1d1d1b;font-family:Leelawadee-Bold, Leelawadee;font-weight:700;}</style></defs><title>logo</title><path d="M192.89,438.6c-19.79-.62-39.6-8.16-54-21.05-23.65-21.13-32.53-56.63-21.39-86.47A83.2,83.2,0,0,1,164.66,283c26.22-10.14,56.82-5,78.7,12.53,24,19.17,34.35,52.06,27.48,81.75-4.83,20.86-18.9,40.47-37.37,51.42C221.27,435.93,207.08,439,192.89,438.6Zm26.79-112.24a14,14,0,0,1-2-3.16,18,18,0,0,1-1.08-4.26c-.13-1.06-.5-1.31-1.49-1.29-3.08.05-6.16,0-9.24,0-.46,0-.92-.05-1.47-.09a14.41,14.41,0,0,1,.13-2.26c.32-1.5.71-3,1.15-4.48.16-.51.7-.93.78-1.44a19.32,19.32,0,0,0,.18-3.23,3.55,3.55,0,0,0-3.53-3.52c-2.45,0-5.28.15-6.93,1.76-.92.89-2,1.73-2.87,2.68a6.38,6.38,0,0,0-.92,1.38c-.29.55-.62,1.19-1.26.5a2.35,2.35,0,0,1-.39-.67c-.22-.48-.41-1-.67-1.43a6.26,6.26,0,0,0-2.24-2c-.7-.45-1.43-.87-2.16-1.26a5.65,5.65,0,0,0-2.18-.95c-3.26-.19-3.72.09-7.15,1.74a11,11,0,0,0-2.47,2,6.08,6.08,0,0,0-1.53,2.63,1.83,1.83,0,0,1-1.9,1.43c-2.59-.21-4.79,1.33-6.34,3.24-.45.55-1,1-1.37,1.64a8,8,0,0,0-1.16,4.48,10.87,10.87,0,0,0,.15,3.17A9.87,9.87,0,0,0,163,325.6c.25.4.51.79.77,1.18.53.83,1.16,1.45.92,2.54a10.12,10.12,0,0,1-.7,1.59,5.22,5.22,0,0,0-.13,3.36,13.21,13.21,0,0,0,3.42,5.35c.56.62,1.5,1,1.43,2.31s-.1,2.78-.09,4.18-.08,2.71,0,4.06a11.74,11.74,0,0,0,1.26,3.9,6.27,6.27,0,0,1,.49,2.45v43.92a6.35,6.35,0,0,0,0,1.31,5.53,5.53,0,0,0,.57,1.62c.56,1,1.75,1.51,2.55,2.34a24.69,24.69,0,0,1,1.8,2.28,7.51,7.51,0,0,1,1.21,1.71c.48,1.2.78,2.47,1.15,3.73h40.63c.06,0,.33-1.43.37-1.57a5.78,5.78,0,0,1,.52-1.36,27.51,27.51,0,0,1,1.56-2.6,28.42,28.42,0,0,1,2.74-3.45c.89-1,2.09-1.87,2.09-3.31q-.09-34.08,0-68.16a1.6,1.6,0,0,0-.72-1.65,14.17,14.17,0,0,1-1.29-1l-1-1-.48-.44" transform="translate(-112.69 -277.85)"/><path class="cls-1" d="M222.57,329.51m-6.25,8.23c-.4,0-.8,0-1.2,0H184.4c-1.74,0-1.77,0-1.77,1.83,0,3.2,0,6.4,0,9.6,0,2.12-.25,4-2.1,5.44a7.47,7.47,0,0,1-4.1,1.94c-1.64.1-1.67.13-1.67,1.75v40.55a2.49,2.49,0,0,0,0,.95,1.25,1.25,0,0,0,.7.64c.34.09,1,0,1.07-.1.22-.95,1-.73,1.54-.73q19.78,0,39.59,0a2.41,2.41,0,0,1,1,.28c.55.25,1.08.54,1.82.93V334.08c-1.7-1.8-3.47-3.23-4.64-5a42.53,42.53,0,0,1-2.8-6.38h-30.4v10.73c0,1,.64,1.08,1.45,1.07h31.31m-39,18.14a1.36,1.36,0,0,0,1.12-1.35,15.4,15.4,0,0,0,0-1.8q0-14.88,0-29.75c0-.63,0-1.26.09-2h9.84c0-2.48,0-4.78,0-7.08,0-.33-.4-.66-.65-1a10.27,10.27,0,0,0-1.29-1.42c-.75-.61-1.52-1.5-2.37-1.61-2.18-.28-4.27-.34-6,1.74a12,12,0,0,0-2.33,4.46,1.16,1.16,0,0,1-1.19,1c-1.63.2-3.25.52-4.87.8-.11,0-.2.12-.3.18l-1.63,1a3.69,3.69,0,0,0-1.36,2.91c.08,1.19,0,2.39,0,3.58s1,1.75,1.82,2.45a21.81,21.81,0,0,1,2,2.35l.46-.06a14.3,14.3,0,0,0-.85,1.88c-.39,1.36-1.51,2.42-1.45,4a5.27,5.27,0,0,0,.9,2.51c.65,1.19,1.34,2.24,2.88,2.29a11.66,11.66,0,0,1,1.19.19c0,.69.1,1.28.1,1.87,0,3.6,0,7.2,0,10.8a2.06,2.06,0,0,0,.58,1.2m4.52,52.11a21,21,0,0,1,2.73,3.06,2.65,2.65,0,0,0,2.51,1.67c10,0,20.07-.05,30.1,0,1.4,0,1.89-.84,2.5-1.7.48-.68.89-1.42,1.35-2.11a11.49,11.49,0,0,1,.74-.95,5.74,5.74,0,0,0-1.3-.32q-18.36,0-36.7,0A11.65,11.65,0,0,0,177.69,403.84Zm16.64-86.3c1.11.1,2.23.13,3.34.18v-.12m3.8-.86" transform="translate(-112.69 -277.85)"/><path d="M218.35,335.17a.79.79,0,0,0-.67-.61,10.27,10.27,0,0,0-2.27-.1H184.1c-.81,0-1.45-.06-1.45-1.07V322.66h30.4a42.53,42.53,0,0,0,2.8,6.38c1.17,1.81,2.94,3.24,4.64,5v66.77c-.82-.43-1.39-.75-2-1a2.49,2.49,0,0,0-.93-.19q-19.73,0-39.44,0c-.58,0-1.32-.22-1.54.73,0,.12-.73.19-1.07.1a1.25,1.25,0,0,1-.7-.64,2.49,2.49,0,0,1,0-.95V358.33c0-1.62,0-1.65,1.67-1.75a7.47,7.47,0,0,0,4.1-1.94c1.85-1.45,2.13-3.32,2.1-5.44-.06-3.2,0-6.4,0-9.6,0-1.8,0-1.83,1.77-1.83h30.72c.4,0,.8,0,1.2,0C218.31,337.56,218.82,337,218.35,335.17Z" transform="translate(-112.69 -277.85)"/><path d="M175,352.8a3.58,3.58,0,0,1-1.13-.35,4.28,4.28,0,0,1-.7-.71,2.8,2.8,0,0,1-.55-1.44c-.05-.53,0-1.09,0-1.61l0-1.83V345l0-3.62,0-3.61a3.92,3.92,0,0,1-3.11-1.12,5.24,5.24,0,0,1-1.61-3.06,7.06,7.06,0,0,1,.4-3.4,12.48,12.48,0,0,1,1.69-3.08,9.52,9.52,0,0,1-3.14-2.71,7.36,7.36,0,0,1-1.46-3.8,6.29,6.29,0,0,1,1.07-3.95,5.21,5.21,0,0,1,3.28-2.28c.82-.16,1.72-.14,2.56-.22a3.41,3.41,0,0,0,2.21-.85,3.24,3.24,0,0,0,.69-1.12c.17-.41.3-.85.45-1.26a7.54,7.54,0,0,1,2.7-3.48,5.53,5.53,0,0,1,4.1-1,5.72,5.72,0,0,1,1.59.53,8.13,8.13,0,0,1,1.41.92,7.33,7.33,0,0,1,1,.95,4.73,4.73,0,0,1,.75,1.13,7.51,7.51,0,0,1,.52,3.74,21.43,21.43,0,0,0,0,3.92h-9.89l0,8v8l0,8v8a8.69,8.69,0,0,1-.12,1.72c-.14.57-.17,1.47-2.49,1.52" transform="translate(-112.69 -277.85)"/><path d="M177.69,403.84a11.65,11.65,0,0,1,1.93-.33q18.34,0,36.7,0a5.74,5.74,0,0,1,1.3.32,11.49,11.49,0,0,0-.74.95c-.46.69-.87,1.43-1.35,2.11-.61.86-1.1,1.71-2.5,1.7-10-.07-20.06,0-30.1,0a2.65,2.65,0,0,1-2.51-1.67A21,21,0,0,0,177.69,403.84Z" transform="translate(-112.69 -277.85)"/><path d="M202.39,306.62c.6.73.16,2.14.12,3.26-.06,1.48-2.15,1.75-3.2,1.74l-3.39,0a.42.42,0,0,1-.34-.11.41.41,0,0,1,0-.36c.33-1.32,1.08-3.24,2.24-4.07A5.14,5.14,0,0,1,202.39,306.62Z" transform="translate(-112.69 -277.85)"/><path d="M197.67,317.78c-.86,0-1.7-.13-2.35-.14-.92,0-1.63-.1-1.1-1,.69-1.24,2.43-1.3,3.77-1.18.27,0,3.49.38,3.48,1.32C201.47,318,199.21,317.85,197.67,317.78Z" transform="translate(-112.69 -277.85)"/><path class="cls-1" d="M177.66,371.83c.8-1.07,2.82-1.9,3.94-2.7l4.92-3.52,9.85-7c6.74-4.82,13.5-9.62,20.22-14.46,1-.75,1.16.46,1.16,1.35,0,5.72.62,11.79.06,17.48-.35,3.52-4.59,5.25-7.24,7-3.6,2.44-7.23,4.88-10.79,7.44q-5.72,4.13-11.41,8.29c-1.71,1.26-3.45,2.5-5.15,3.79-1.13.86-2.2,1.81-3.3,2.71-.35.29-2.4,2.19-2.38.71,0-.74.05-4.63.05-5.46q0-7.47,0-14.93C177.6,372.31,177.64,372.07,177.66,371.83Z" transform="translate(-112.69 -277.85)"/><text class="cls-2" transform="translate(176.27 86.97)">beer sessions</text></svg>